<?xml version="1.0" standalone="no"?>
<!DOCTYPE svg PUBLIC "-//W3C//DTD SVG 20010904//EN"
 "http://www.w3.org/TR/2001/REC-SVG-20010904/DTD/svg10.dtd">
<svg version="1.0" xmlns="http://www.w3.org/2000/svg"
 width="512.000000pt" height="512.000000pt" viewBox="0 0 512.000000 512.000000"
 preserveAspectRatio="xMidYMid meet">

<g transform="translate(0.000000,512.000000) scale(0.100000,-0.100000)"
fill="#000000" stroke="none">
<path d="M2380 5110 c-347 -48 -629 -188 -875 -434 -178 -179 -291 -360 -363
-586 -58 -181 -64 -225 -69 -506 l-5 -262 -42 -18 c-123 -55 -300 -204 -395
-333 -56 -75 -124 -211 -154 -306 -47 -149 -48 -189 -45 -1010 3 -754 4 -772
25 -847 119 -423 443 -720 862 -792 83 -14 232 -16 1241 -16 982 0 1160 2
1236 15 425 73 747 368 867 793 21 75 22 93 25 847 3 821 2 861 -45 1010 -30
95 -98 231 -153 306 -97 131 -272 277 -397 333 l-43 19 0 216 c0 137 -5 251
-15 311 -93 618 -563 1110 -1180 1240 -114 24 -369 35 -475 20z m460 -454
c188 -52 372 -164 500 -303 203 -222 297 -493 288 -828 l-3 -110 -1065 0
-1065 0 1 160 c0 232 29 365 115 536 127 255 383 465 655 540 125 34 161 38
324 34 129 -3 171 -8 250 -29z m-166 -2556 c20 -14 49 -43 64 -64 l27 -39 3
-266 c4 -293 0 -320 -51 -378 -101 -115 -277 -90 -348 50 -19 35 -20 57 -17
317 l3 278 30 43 c45 64 104 91 186 87 50 -3 75 -10 103 -28z"/>
</g>
</svg>
